<svg width="380" height="380" viewBox="0 0 380 380" fill="none" xmlns="http://www.w3.org/2000/svg">
<circle cx="190" cy="190" r="190" fill="#FFEDEF"/>
<mask id="mask0" mask-type="alpha" maskUnits="userSpaceOnUse" x="0" y="0" width="380" height="380">
<circle cx="190" cy="190" r="190" fill="#333333"/>
</mask>
<g mask="url(#mask0)">
<g clip-path="url(#clip0)">
<path d="M244 362.5C229.6 342.5 218.333 303.834 217 284.5L148.5 255L120 362.5H244Z" fill="#F9C9B6" stroke="black" stroke-width="4"/>
<mask id="mask1" mask-type="alpha" maskUnits="userSpaceOnUse" x="120" y="255" width="124" height="118">
<path d="M244 372.5C229.6 352.5 218.333 303.834 217 284.5L148.5 255L120 372.5H244Z" fill="#AC6651"/>
</mask>
<g mask="url(#mask1)">
<g style="mix-blend-mode:multiply">
<ellipse cx="214" cy="253" rx="59" ry="54" fill="black"/>
</g>
</g>
<mask id="path-6-inside-1" fill="white">
<path fill-rule="evenodd" clip-rule="evenodd" d="M273.887 193.917C273.86 193.802 273.832 193.686 273.804 193.57C273.777 193.454 273.749 193.339 273.72 193.223L257.324 124.786C257.307 124.718 257.291 124.651 257.275 124.583C257.259 124.515 257.242 124.447 257.226 124.379L257.153 124.076L257.152 124.076C246.934 82.6315 205.157 57.1479 163.583 67.1087C122.009 77.0696 96.3164 118.718 105.989 160.293L105.987 160.294L122.979 231.212L122.993 231.208C133.595 272.113 175.063 297.149 216.33 287.262C257.598 277.375 283.217 236.265 274.132 194.997L274.145 194.994L273.887 193.917Z"/>
</mask>
<path fill-rule="evenodd" clip-rule="evenodd" d="M273.887 193.917C273.86 193.802 273.832 193.686 273.804 193.57C273.777 193.454 273.749 193.339 273.72 193.223L257.324 124.786C257.307 124.718 257.291 124.651 257.275 124.583C257.259 124.515 257.242 124.447 257.226 124.379L257.153 124.076L257.152 124.076C246.934 82.6315 205.157 57.1479 163.583 67.1087C122.009 77.0696 96.3164 118.718 105.989 160.293L105.987 160.294L122.979 231.212L122.993 231.208C133.595 272.113 175.063 297.149 216.33 287.262C257.598 277.375 283.217 236.265 274.132 194.997L274.145 194.994L273.887 193.917Z" fill="#F9C9B6"/>
<path d="M273.887 193.917L269.993 194.832L269.995 194.841L269.997 194.849L273.887 193.917ZM273.72 193.223L269.831 194.155L269.833 194.164L269.835 194.173L273.72 193.223ZM257.324 124.786L253.431 125.708L253.434 125.718L257.324 124.786ZM257.226 124.379L253.336 125.311L253.339 125.322L257.226 124.379ZM257.153 124.076L261.043 123.144L260.112 119.256L256.223 120.186L257.153 124.076ZM257.152 124.076L253.268 125.034L254.219 128.89L258.082 127.967L257.152 124.076ZM163.583 67.1087L162.651 63.2188L162.651 63.2188L163.583 67.1087ZM105.989 160.293L106.923 164.183L110.785 163.255L109.885 159.387L105.989 160.293ZM105.987 160.294L105.053 156.405L101.166 157.338L102.097 161.226L105.987 160.294ZM122.979 231.212L119.089 232.144L120.021 236.035L123.912 235.101L122.979 231.212ZM122.993 231.208L126.865 230.205L125.879 226.402L122.059 227.319L122.993 231.208ZM216.33 287.262L215.398 283.372L215.398 283.372L216.33 287.262ZM274.132 194.997L273.201 191.107L269.382 192.021L270.226 195.857L274.132 194.997ZM274.145 194.994L275.076 198.884L278.967 197.952L278.035 194.062L274.145 194.994ZM277.781 193.003C277.752 192.881 277.723 192.76 277.694 192.638L269.915 194.502C269.941 194.612 269.967 194.722 269.993 194.832L277.781 193.003ZM277.694 192.638C277.665 192.517 277.636 192.395 277.606 192.274L269.835 194.173C269.861 194.282 269.888 194.392 269.915 194.502L277.694 192.638ZM253.434 125.718L269.831 194.155L277.61 192.291L261.213 123.854L253.434 125.718ZM261.216 123.864C261.199 123.794 261.182 123.722 261.165 123.651L253.385 125.515C253.401 125.579 253.416 125.643 253.431 125.708L261.216 123.864ZM261.165 123.651C261.148 123.58 261.131 123.509 261.113 123.437L253.339 125.322C253.354 125.386 253.37 125.45 253.385 125.515L261.165 123.651ZM253.263 125.008L253.336 125.311L261.116 123.447L261.043 123.144L253.263 125.008ZM258.082 127.967L258.084 127.966L256.223 120.186L256.222 120.186L258.082 127.967ZM261.036 123.119C250.292 79.5404 206.365 52.7453 162.651 63.2188L164.515 70.9987C203.949 61.5505 243.576 85.7226 253.268 125.034L261.036 123.119ZM162.651 63.2188C118.937 73.6923 91.9225 117.484 102.093 161.2L109.885 159.387C100.71 119.952 125.081 80.4468 164.515 70.9987L162.651 63.2188ZM106.921 164.183L106.923 164.183L105.055 156.404L105.053 156.405L106.921 164.183ZM126.869 230.28L109.877 159.362L102.097 161.226L119.089 232.144L126.869 230.28ZM122.059 227.319L122.045 227.322L123.912 235.101L123.926 235.098L122.059 227.319ZM119.121 232.212C130.269 275.223 173.87 301.548 217.262 291.152L215.398 283.372C176.255 292.751 136.921 269.003 126.865 230.205L119.121 232.212ZM217.262 291.152C260.654 280.756 287.592 237.53 278.039 194.137L270.226 195.857C278.843 235 254.542 273.994 215.398 283.372L217.262 291.152ZM273.213 191.104L273.201 191.107L275.064 198.887L275.076 198.884L273.213 191.104ZM269.997 194.849L270.255 195.926L278.035 194.062L277.777 192.985L269.997 194.849Z" fill="black" mask="url(#path-6-inside-1)"/>
</g>
<path d="M219 132.214C224.667 129.548 238 127.114 246 138.714" stroke="black" stroke-width="4" stroke-linecap="round"/>
<path d="M143.579 157.521C145.65 151.61 153.261 140.396 167.142 142.822" stroke="black" stroke-width="4" stroke-linecap="round"/>
<path fill-rule="evenodd" clip-rule="evenodd" d="M157.287 173.072C157.401 173.885 158.434 174.066 159.009 173.48C161.474 170.964 165.264 169.116 169.663 168.593C172.258 168.285 174.754 168.475 176.979 169.065C177.733 169.266 178.474 168.629 178.21 167.895C176.545 163.249 171.845 160.196 166.736 160.803C160.794 161.509 156.55 166.897 157.256 172.839C157.266 172.917 157.276 172.995 157.287 173.072Z" fill="black"/>
<path fill-rule="evenodd" clip-rule="evenodd" d="M221.385 163.073C221.498 163.886 222.531 164.067 223.106 163.482C225.549 160.996 229.298 159.17 233.649 158.653C236.213 158.348 238.681 158.535 240.88 159.117C241.634 159.316 242.375 158.679 242.111 157.946C240.456 153.352 235.804 150.335 230.748 150.935C224.863 151.635 220.658 156.973 221.358 162.859C221.366 162.93 221.375 163.002 221.385 163.073Z" fill="black"/>
<path d="M200.278 178.927C205.498 176.94 214.601 177.54 214.041 187.64C213.543 196.615 204.334 198.398 201.4 196.305" stroke="black" stroke-width="4"/>
<path d="M124.5 180.176C122.17 179.408 119.655 179 117.08 179C106.587 179 98.0801 185.5 99.08 197.5C100.122 210 107.587 214.5 118.08 214.5C119.248 214.5 120.391 214.397 121.5 214.201C122.711 213.987 123.881 213.661 125 213.235" stroke="black" stroke-width="8"/>
<path d="M125.5 213.036C123.22 213.979 120.713 214.5 118.08 214.5C107.587 214.5 100.122 210 99.08 197.5C98.0801 185.5 106.587 179 117.08 179C120.217 179 123.267 179.606 126 180.73L125.5 213.036Z" fill="#F9C9B6"/>
<path d="M121.5 187.5C117.5 185.667 108.7 184.7 105.5 195.5" stroke="black" stroke-width="4"/>
<path d="M111 188C113.167 189.833 117.3 195.5 116.5 203.5" stroke="black" stroke-width="4"/>
<path d="M189.771 359.577C189.771 359.577 189.771 359.577 191 357.999L189.771 359.577L191.493 360.918L192.679 359.087L192.679 359.086L192.681 359.083L192.69 359.069L192.731 359.007C192.742 358.99 192.755 358.97 192.769 358.948C192.803 358.897 192.847 358.831 192.9 358.752C193.05 358.527 193.275 358.194 193.57 357.769C194.158 356.918 195.023 355.701 196.118 354.246C198.312 351.331 201.416 347.481 205.071 343.718C208.737 339.944 212.898 336.317 217.198 333.793C221.514 331.259 225.777 329.949 229.733 330.482C272.171 336.204 303.402 355.001 323.674 383H50.3745C66.6742 353.658 89.8579 334.982 127.445 326.412C129.046 326.047 131.224 326.158 133.947 326.791C136.642 327.418 139.715 328.519 143.028 329.975C149.655 332.888 157.052 337.136 164.004 341.536C170.945 345.929 177.39 350.442 182.104 353.859C184.459 355.567 186.379 356.999 187.709 358.003C188.374 358.505 188.891 358.9 189.241 359.169C189.416 359.303 189.55 359.406 189.639 359.475L189.739 359.552L189.764 359.572L189.77 359.576L189.771 359.577Z" fill="#6BD9E9" stroke="black" stroke-width="4"/>
<path d="M115.613 329.085L120.779 309.853C120.989 309.074 121.996 308.854 122.54 309.449C137.403 325.714 156.16 325.076 162.385 324.33C163.23 324.228 163.892 325.153 163.495 325.906L150.338 350.859C150.136 351.241 149.724 351.452 149.3 351.364C145.352 350.541 125.677 345.732 115.729 329.867C115.583 329.635 115.542 329.35 115.613 329.085Z" fill="#D2EFF3" stroke="black" stroke-width="4"/>
<path d="M246.195 328.981L234.614 309.499C234.221 308.837 233.252 308.848 232.833 309.494C227.096 318.33 217.202 322.4 213.742 323.602C213.119 323.819 212.834 324.558 213.17 325.125L226.673 347.94C226.874 348.281 227.255 348.465 227.635 348.357C229.77 347.749 237.095 344.685 246.182 330.021C246.377 329.706 246.384 329.3 246.195 328.981Z" fill="#D2EFF3" stroke="black" stroke-width="4"/>
<path d="M172.5 346.5L163.5 325L156.5 340L172.5 346.5Z" fill="black" stroke="black" stroke-width="4" stroke-linejoin="round"/>
<path d="M204 345.5L213 324L220 339L204 345.5Z" fill="black" stroke="black" stroke-width="4" stroke-linejoin="round"/>
<path d="M133.5 306L121.5 309L131.5 315.5L133.5 306Z" fill="black" stroke="black" stroke-width="4" stroke-linejoin="round"/>
<path d="M223 306L234 309L227 315.5L223 306Z" fill="black" stroke="black" stroke-width="4" stroke-linejoin="round"/>
<path d="M44.6007 331.857C44.4477 331.466 44.2377 330.916 43.9828 330.219C43.4158 328.667 42.6268 326.384 41.7485 323.479C39.9915 317.667 37.8806 309.38 36.4734 299.502C33.6563 279.725 33.6769 253.696 44.8698 228.384C46.679 224.292 48.94 220.089 51.3903 215.533C60.8582 197.931 73.1551 175.07 73.1551 133.084C73.1551 102.493 88.0029 76.7305 109.862 58.5692C131.741 40.3915 160.56 29.9109 188.237 29.9109C203.368 29.9109 215.533 31.6444 225.311 37.5511C235.028 43.4212 242.679 53.5978 248.362 71.1322C248.94 72.9168 250.851 74.0074 252.719 73.4015C264.034 69.7304 281.191 73.4361 295.673 82.8904C310.091 92.3032 321.289 107.046 321.289 124.814C321.289 140.24 318.647 150.664 316.071 160.815L316.071 160.815C312.952 173.104 309.94 184.974 312.065 204.313C312.774 210.762 314.216 215.336 316.231 219.128C318.213 222.859 320.712 225.747 323.345 228.792L323.405 228.861C329.679 236.113 332.534 242.079 333.455 247.327C334.375 252.562 333.412 257.31 331.623 262.237C330.723 264.712 329.629 267.197 328.47 269.815L328.37 270.041C327.248 272.573 326.074 275.225 325.019 278.016C322.836 283.787 321.133 290.223 321.302 297.851C321.446 304.326 322.594 308.764 324.311 312.122C326.008 315.442 328.199 317.565 330.11 319.416L330.162 319.466C331.905 321.155 333.355 322.577 334.428 324.57C335.387 326.351 336.098 328.702 336.217 332.232C312.208 346.511 288.445 352.413 270.601 354.734C261.565 355.91 254.057 356.166 248.818 356.129C246.199 356.11 244.149 356.019 242.76 355.932C242.271 355.902 241.865 355.872 241.544 355.847C235.393 346.458 229.789 330.969 225.447 315.059C221.226 299.589 218.261 283.968 217.147 273.649C254.22 262.931 277.458 224.667 271.871 185.189C271.864 185.117 271.856 185.067 271.856 185.066C271.848 185.006 271.837 184.938 271.825 184.867C271.813 184.792 271.798 184.703 271.78 184.601C271.764 184.511 271.746 184.41 271.726 184.3C271.641 183.832 271.516 183.172 271.353 182.346C271.028 180.693 270.552 178.358 269.942 175.532C268.722 169.88 266.967 162.249 264.825 154.155C262.685 146.065 260.152 137.485 257.372 129.945C254.613 122.46 251.541 115.802 248.264 111.706L247.967 111.335L247.532 111.146C245.6 110.308 243.593 109.374 241.499 108.399C231.568 103.775 219.659 98.2299 204.235 97.6199C185.46 96.8774 161.684 103.396 129.544 126.706L127.521 128.173L129.467 129.74C145.393 142.574 148.836 159.598 148.1 174.048C147.539 185.077 144.551 194.459 142.865 199.149C141.704 197.452 140.964 195.319 140.408 192.814C140.023 191.083 139.743 189.258 139.449 187.347L139.403 187.045C139.096 185.051 138.769 182.97 138.292 180.961C137.341 176.95 135.732 172.941 132.16 170.102C128.581 167.257 123.364 165.848 115.767 166.272L113.54 166.396L114.005 168.578L125.363 221.891L125.382 221.98L125.41 222.068C129.468 234.93 136.426 246.078 145.323 254.88C145.399 255.007 145.509 255.193 145.65 255.434C145.939 255.928 146.356 256.653 146.861 257.563C147.87 259.384 149.229 261.941 150.621 264.886C153.435 270.835 156.282 278.138 156.83 284.102C157.386 290.154 155.865 297.962 154.123 304.412C153.26 307.605 152.361 310.406 151.677 312.407C151.535 312.824 151.402 313.206 151.281 313.549C146.249 311.144 141.754 311.323 137.902 313.565C133.738 315.989 130.689 320.625 128.419 325.781C124.271 335.202 122.276 347.42 121.355 355.002C96.4846 349.298 77.281 343.507 64.2149 339.107C57.5012 336.846 52.408 334.953 48.9993 333.627C47.2949 332.964 46.0117 332.443 45.1575 332.089C44.9454 332.002 44.7598 331.924 44.6007 331.857Z" fill="#77311D" stroke="black" stroke-width="3.82184"/>
<circle cx="237.5" cy="163" r="26" stroke="black" stroke-width="4"/>
<circle cx="170.5" cy="172" r="26" stroke="black" stroke-width="4"/>
<path d="M212.5 170C212.5 167.878 211.657 165.843 210.157 164.343C208.657 162.843 206.622 162 204.5 162C202.378 162 200.343 162.843 198.843 164.343C197.343 165.843 196.5 167.878 196.5 170" stroke="black" stroke-width="4"/>
<path d="M145 174L115 179.5" stroke="black" stroke-width="4"/>
<rect x="169.248" y="221.471" width="70" height="24" rx="4" transform="rotate(-4 169.248 221.471)" fill="black"/>
<path fill-rule="evenodd" clip-rule="evenodd" d="M232.822 217.025L175.504 221.033L177.344 228.038C178.077 230.827 180.69 232.7 183.566 232.499C180.69 232.7 178.363 234.919 178.026 237.782L177.179 244.975L234.496 240.967L232.656 233.962C231.923 231.173 229.31 229.3 226.434 229.501C229.31 229.3 231.637 227.081 231.974 224.218L232.822 217.025Z" fill="white"/>
<path d="M242.419 235.704L241.401 221.134C241.143 217.448 237.664 214.88 234.079 215.649C227.135 217.14 213.858 219.783 204.263 220.454C194.667 221.125 181.151 220.355 174.067 219.845C170.411 219.582 167.323 222.61 167.581 226.296L168.6 240.866C168.857 244.552 172.337 247.12 175.921 246.351C182.865 244.86 196.142 242.217 205.738 241.546C215.333 240.875 228.849 241.645 235.933 242.155C239.589 242.418 242.677 239.39 242.419 235.704Z" stroke="black" stroke-width="4"/>
</g>
<defs>
<clipPath id="clip0">
<rect width="200" height="320" fill="white" transform="translate(90 43)"/>
</clipPath>
</defs>
</svg>
